<svg width="111" height="37" viewBox="0 0 111 37" fill="none" xmlns="http://www.w3.org/2000/svg">
<rect x="0.5" y="0.5" width="110" height="36" rx="6.5" fill="#0C1C38"/>
<rect x="0.5" y="0.5" width="110" height="36" rx="6.5" stroke="white"/>
<path d="M75.4114 17.7608V19.88H74.0831V21.2698H75.4114V25.9919C75.4114 27.6043 76.1409 28.2493 77.976 28.2493C78.2984 28.2493 78.6056 28.2109 78.8743 28.1648V26.7904C78.644 26.8135 78.4981 26.8288 78.2447 26.8288C77.4231 26.8288 77.0622 26.4449 77.0622 25.5696V21.2698H78.8743V19.88H77.0622V17.7608H75.4114Z" fill="white"/>
<path d="M83.5491 28.3645C85.9908 28.3645 87.488 26.729 87.488 24.0186C87.488 21.3235 85.9831 19.6804 83.5491 19.6804C81.1074 19.6804 79.6025 21.3235 79.6025 24.0186C79.6025 26.729 81.0998 28.3645 83.5491 28.3645ZM83.5491 26.8979C82.1133 26.8979 81.3071 25.846 81.3071 24.0186C81.3071 22.2065 82.1133 21.1469 83.5491 21.1469C84.9773 21.1469 85.7912 22.2065 85.7912 24.0186C85.7912 25.8383 84.9773 26.8979 83.5491 26.8979Z" fill="white"/>
<path d="M88.7691 28.2032H90.4199V23.2661C90.4199 22.0913 91.3029 21.3005 92.5544 21.3005C92.8462 21.3005 93.3376 21.3542 93.4758 21.4003V19.7725C93.2992 19.7265 92.9844 19.7034 92.7387 19.7034C91.6484 19.7034 90.7193 20.3023 90.4813 21.1239H90.3585V19.8416H88.7691V28.2032Z" fill="white"/>
<path d="M97.5748 21.0855C98.7956 21.0855 99.5941 21.9378 99.6325 23.2508H95.4095C95.5017 21.9455 96.3539 21.0855 97.5748 21.0855ZM99.6249 25.9458C99.3177 26.5985 98.6344 26.9593 97.6362 26.9593C96.3155 26.9593 95.4633 26.0303 95.4095 24.5637V24.4716H101.314V23.8957C101.314 21.2698 99.909 19.6804 97.5825 19.6804C95.2252 19.6804 93.728 21.3773 93.728 24.0493C93.728 26.7213 95.1945 28.3645 97.5901 28.3645C99.502 28.3645 100.838 27.4431 101.214 25.9458H99.6249Z" fill="white"/>
<path d="M64.5856 25.1154C64.7129 27.1686 66.424 28.4818 68.9706 28.4818C71.6923 28.4818 73.3954 27.105 73.3954 24.9085C73.3954 23.1816 72.4245 22.2266 70.0689 21.6774L68.8035 21.3671C67.3073 21.0169 66.7025 20.5474 66.7025 19.7277C66.7025 18.6931 67.6416 18.0167 69.0502 18.0167C70.3872 18.0167 71.3103 18.6772 71.4775 19.7356H73.2124C73.1089 17.8018 71.4058 16.4409 69.0741 16.4409C66.5672 16.4409 64.896 17.8018 64.896 19.847C64.896 21.5342 65.843 22.5369 67.9201 23.0224L69.4004 23.3805C70.9204 23.7386 71.5889 24.2639 71.5889 25.1393C71.5889 26.1579 70.5384 26.8981 69.1059 26.8981C67.57 26.8981 66.5036 26.2057 66.3523 25.1154H64.5856Z" fill="white"/>
<path d="M47.4848 19.7034C46.3485 19.7034 45.3656 20.2716 44.8589 21.2237H44.736V19.8416H43.1466V30.9827H44.7975V26.9363H44.928C45.3656 27.8193 46.3101 28.3414 47.5002 28.3414C49.6117 28.3414 50.9554 26.6752 50.9554 24.0186C50.9554 21.3619 49.6117 19.7034 47.4848 19.7034ZM47.0165 26.8595C45.6344 26.8595 44.7667 25.7692 44.7667 24.0263C44.7667 22.2756 45.6344 21.1853 47.0241 21.1853C48.4216 21.1853 49.2585 22.2526 49.2585 24.0186C49.2585 25.7923 48.4216 26.8595 47.0165 26.8595Z" fill="white"/>
<path d="M56.7319 19.7034C55.5955 19.7034 54.6127 20.2716 54.1059 21.2237H53.9831V19.8416H52.3937V30.9827H54.0445V26.9363H54.175C54.6127 27.8193 55.5571 28.3414 56.7472 28.3414C58.8587 28.3414 60.2024 26.6752 60.2024 24.0186C60.2024 21.3619 58.8587 19.7034 56.7319 19.7034ZM56.2635 26.8595C54.8814 26.8595 54.0138 25.7692 54.0138 24.0263C54.0138 22.2756 54.8814 21.1853 56.2712 21.1853C57.6686 21.1853 58.5055 22.2526 58.5055 24.0186C58.5055 25.7923 57.6686 26.8595 56.2635 26.8595Z" fill="white"/>
<path d="M40.1848 28.2032H42.0788L37.9326 16.7195H36.0147L31.8684 28.2032H33.6988L34.7573 25.1552H39.1343L40.1848 28.2032ZM36.8821 18.8045H37.0174L38.6807 23.6591H35.2109L36.8821 18.8045Z" fill="white"/>
<path d="M32.9773 8.05773V13.5976H34.9775C36.6283 13.5976 37.5842 12.5802 37.5842 10.8104C37.5842 9.06742 36.6206 8.05773 34.9775 8.05773H32.9773ZM33.8373 8.84091H34.8815C36.0294 8.84091 36.7089 9.57034 36.7089 10.8219C36.7089 12.0926 36.0409 12.8144 34.8815 12.8144H33.8373V8.84091Z" fill="white"/>
<path d="M40.5119 13.6782C41.7328 13.6782 42.4814 12.8605 42.4814 11.5053C42.4814 10.1577 41.7289 9.33616 40.5119 9.33616C39.2911 9.33616 38.5386 10.1577 38.5386 11.5053C38.5386 12.8605 39.2873 13.6782 40.5119 13.6782ZM40.5119 12.9449C39.794 12.9449 39.3909 12.419 39.3909 11.5053C39.3909 10.5992 39.794 10.0694 40.5119 10.0694C41.226 10.0694 41.633 10.5992 41.633 11.5053C41.633 12.4151 41.226 12.9449 40.5119 12.9449Z" fill="white"/>
<path d="M48.8566 9.41678H48.0312L47.2864 12.6071H47.2212L46.3612 9.41678H45.5703L44.7104 12.6071H44.649L43.9003 9.41678H43.0634L44.2151 13.5976H45.0636L45.9235 10.5186H45.9888L46.8526 13.5976H47.7087L48.8566 9.41678Z" fill="white"/>
<path d="M49.8072 13.5976H50.6326V11.1521C50.6326 10.4994 51.0203 10.0925 51.6308 10.0925C52.2412 10.0925 52.533 10.4265 52.533 11.0983V13.5976H53.3584V10.891C53.3584 9.89667 52.8439 9.33616 51.911 9.33616C51.2814 9.33616 50.8668 9.61641 50.6633 10.0809H50.6019V9.41678H49.8072V13.5976Z" fill="white"/>
<path d="M54.6583 13.5976H55.4837V7.78516H54.6583V13.5976Z" fill="white"/>
<path d="M58.588 13.6782C59.8088 13.6782 60.5575 12.8605 60.5575 11.5053C60.5575 10.1577 59.805 9.33616 58.588 9.33616C57.3672 9.33616 56.6147 10.1577 56.6147 11.5053C56.6147 12.8605 57.3633 13.6782 58.588 13.6782ZM58.588 12.9449C57.8701 12.9449 57.467 12.419 57.467 11.5053C57.467 10.5992 57.8701 10.0694 58.588 10.0694C59.3021 10.0694 59.709 10.5992 59.709 11.5053C59.709 12.4151 59.3021 12.9449 58.588 12.9449Z" fill="white"/>
<path d="M63.0168 12.9718C62.5676 12.9718 62.2413 12.753 62.2413 12.3767C62.2413 12.0082 62.5024 11.8124 63.0782 11.774L64.0994 11.7087V12.0581C64.0994 12.5764 63.6387 12.9718 63.0168 12.9718ZM62.8057 13.6667C63.3546 13.6667 63.8115 13.4286 64.061 13.0102H64.1263V13.5976H64.921V10.7413C64.921 9.85828 64.3298 9.33616 63.2817 9.33616C62.3334 9.33616 61.6578 9.79685 61.5733 10.5148H62.3718C62.464 10.2192 62.7826 10.0502 63.2433 10.0502C63.8077 10.0502 64.0994 10.2998 64.0994 10.7413V11.1021L62.9669 11.1674C61.9726 11.2288 61.4121 11.6627 61.4121 12.4151C61.4121 13.1791 61.9994 13.6667 62.8057 13.6667Z" fill="white"/>
<path d="M67.722 13.6667C68.2979 13.6667 68.7855 13.3941 69.035 12.9372H69.1003V13.5976H69.8911V7.78516H69.0657V10.0809H69.0043C68.7778 9.62025 68.294 9.34767 67.722 9.34767C66.6663 9.34767 65.9867 10.1846 65.9867 11.5053C65.9867 12.8297 66.6586 13.6667 67.722 13.6667ZM67.9562 10.0886C68.6472 10.0886 69.0811 10.6376 69.0811 11.5091C69.0811 12.3844 68.6511 12.9257 67.9562 12.9257C67.2575 12.9257 66.839 12.3921 66.839 11.5053C66.839 10.6261 67.2613 10.0886 67.9562 10.0886Z" fill="white"/>
<path d="M75.2436 13.6782C76.4644 13.6782 77.2131 12.8605 77.2131 11.5053C77.2131 10.1577 76.4606 9.33616 75.2436 9.33616C74.0228 9.33616 73.2703 10.1577 73.2703 11.5053C73.2703 12.8605 74.0189 13.6782 75.2436 13.6782ZM75.2436 12.9449C74.5257 12.9449 74.1226 12.419 74.1226 11.5053C74.1226 10.5992 74.5257 10.0694 75.2436 10.0694C75.9577 10.0694 76.3646 10.5992 76.3646 11.5053C76.3646 12.4151 75.9577 12.9449 75.2436 12.9449Z" fill="white"/>
<path d="M78.3057 13.5976H79.1311V11.1521C79.1311 10.4994 79.5188 10.0925 80.1293 10.0925C80.7397 10.0925 81.0315 10.4265 81.0315 11.0983V13.5976H81.8569V10.891C81.8569 9.89667 81.3424 9.33616 80.4095 9.33616C79.7799 9.33616 79.3653 9.61641 79.1618 10.0809H79.1004V9.41678H78.3057V13.5976Z" fill="white"/>
<path d="M85.6583 8.37638V9.43597H84.9942V10.1309H85.6583V12.4919C85.6583 13.2981 86.0231 13.6206 86.9406 13.6206C87.1019 13.6206 87.2554 13.6014 87.3898 13.5784V12.8912C87.2746 12.9027 87.2017 12.9104 87.075 12.9104C86.6642 12.9104 86.4838 12.7184 86.4838 12.2808V10.1309H87.3898V9.43597H86.4838V8.37638H85.6583Z" fill="white"/>
<path d="M88.4978 13.5976H89.3232V11.1559C89.3232 10.5224 89.6994 10.0963 90.3751 10.0963C90.9586 10.0963 91.2696 10.4341 91.2696 11.1021V13.5976H92.095V10.8987C92.095 9.90435 91.546 9.34 90.6553 9.34C90.0257 9.34 89.5842 9.62025 89.3807 10.0886H89.3155V7.78516H88.4978V13.5976Z" fill="white"/>
<path d="M95.0726 10.0387C95.683 10.0387 96.0823 10.4649 96.1015 11.1213H93.99C94.0361 10.4687 94.4622 10.0387 95.0726 10.0387ZM96.0977 12.4689C95.9441 12.7952 95.6024 12.9756 95.1033 12.9756C94.443 12.9756 94.0169 12.5111 93.99 11.7778V11.7318H96.9423V11.4438C96.9423 10.1309 96.2397 9.33616 95.0765 9.33616C93.8978 9.33616 93.1492 10.1846 93.1492 11.5206C93.1492 12.8566 93.8825 13.6782 95.0803 13.6782C96.0362 13.6782 96.7042 13.2175 96.8924 12.4689H96.0977Z" fill="white"/>
<path d="M22.9113 18.7782C22.9314 17.2233 23.7664 15.752 25.0911 14.9376C24.2554 13.744 22.8557 12.9873 21.3993 12.9417C19.846 12.7787 18.3402 13.8712 17.5486 13.8712C16.7418 13.8712 15.5231 12.9579 14.2108 12.9849C12.5002 13.0402 10.9056 14.0127 10.0733 15.5082C8.28438 18.6055 9.61877 23.1575 11.3324 25.6611C12.1898 26.887 13.1919 28.2564 14.503 28.2079C15.786 28.1547 16.2652 27.3897 17.8139 27.3897C19.3483 27.3897 19.7979 28.2079 21.1356 28.177C22.5124 28.1546 23.3798 26.9456 24.2071 25.708C24.8231 24.8345 25.2971 23.8691 25.6116 22.8475C23.9937 22.1632 22.9132 20.5349 22.9113 18.7782Z" fill="white"/>
<path d="M20.3845 11.2952C21.1352 10.3941 21.505 9.23582 21.4155 8.06641C20.2686 8.18686 19.2093 8.73498 18.4485 9.60155C17.7045 10.4482 17.3173 11.5861 17.3905 12.7108C18.5378 12.7226 19.6656 12.1894 20.3845 11.2952Z" fill="white"/>
</svg>
