<svg width="111" height="33" viewBox="0 0 111 33" fill="none" xmlns="http://www.w3.org/2000/svg">
<rect x="0.5" y="0.5" width="110" height="32" rx="4.5" fill="#0C1C38"/>
<rect x="0.5" y="0.5" width="110" height="32" rx="4.5" stroke="white"/>
<path d="M56.0229 17.9448C54.0891 17.9448 52.5129 19.4207 52.5129 21.4535C52.5129 23.4739 54.0891 24.9622 56.0229 24.9622C57.9576 24.9622 59.5338 23.4739 59.5338 21.4535C59.533 19.4207 57.9568 17.9448 56.0229 17.9448ZM56.0229 23.5812C54.9631 23.5812 54.0496 22.7042 54.0496 21.4543C54.0496 20.1912 54.9639 19.3275 56.0229 19.3275C57.0828 19.3275 57.9963 20.1912 57.9963 21.4543C57.9963 22.7034 57.0828 23.5812 56.0229 23.5812ZM48.3647 17.9448C46.4309 17.9448 44.8547 19.4207 44.8547 21.4535C44.8547 23.4739 46.4309 24.9622 48.3647 24.9622C50.2994 24.9622 51.8756 23.4739 51.8756 21.4535C51.8756 19.4207 50.2994 17.9448 48.3647 17.9448ZM48.3647 23.5812C47.3049 23.5812 46.3914 22.7042 46.3914 21.4543C46.3914 20.1912 47.3057 19.3275 48.3647 19.3275C49.4246 19.3275 50.3381 20.1912 50.3381 21.4543C50.3389 22.7034 49.4246 23.5812 48.3647 23.5812ZM39.2562 19.0222V20.5105H42.8065C42.7005 21.3479 42.4225 21.9592 41.9983 22.3841C41.4819 22.9022 40.6737 23.4739 39.2562 23.4739C37.0707 23.4739 35.3621 21.7059 35.3621 19.5131C35.3621 17.3202 37.0707 15.5523 39.2562 15.5523C40.4352 15.5523 41.2961 16.0176 41.9317 16.6157L42.9784 15.5655C42.0904 14.7149 40.9121 14.064 39.2562 14.064C36.2625 14.064 33.7456 16.5093 33.7456 19.5131C33.7456 22.5169 36.2625 24.9622 39.2562 24.9622C40.8718 24.9622 42.0912 24.4301 43.0441 23.4335C44.0242 22.4501 44.3293 21.0674 44.3293 19.9512C44.3293 19.6063 44.303 19.287 44.2495 19.0214H39.2562V19.0222ZM76.5094 20.178C76.2183 19.3943 75.3303 17.9448 73.5157 17.9448C71.7142 17.9448 70.2169 19.3671 70.2169 21.4535C70.2169 23.4203 71.7011 24.9622 73.6875 24.9622C75.2901 24.9622 76.2175 23.9788 76.6023 23.4071L75.4101 22.6093C75.013 23.1942 74.4695 23.5795 73.6875 23.5795C72.9064 23.5795 72.3498 23.2206 71.9921 22.5161L76.6681 20.5757L76.5094 20.178ZM71.7405 21.3479C71.7011 19.9916 72.7872 19.3011 73.5691 19.3011C74.1784 19.3011 74.6948 19.6071 74.8674 20.0452L71.7405 21.3479ZM67.9394 24.7502H69.4753V14.4369H67.9394V24.7502ZM65.4217 18.7293H65.3691C65.0246 18.3168 64.3619 17.9448 63.5282 17.9448C61.7793 17.9448 60.1768 19.4867 60.1768 21.4675C60.1768 23.4343 61.7793 24.963 63.5282 24.963C64.3627 24.963 65.0246 24.591 65.3691 24.1661H65.4217V24.671C65.4217 26.0133 64.7064 26.731 63.5545 26.731C62.6139 26.731 62.0309 26.0537 61.7925 25.482L60.4547 26.0405C60.8387 26.9703 61.8582 28.1137 63.5545 28.1137C65.356 28.1137 66.8795 27.0503 66.8795 24.4581V18.1584H65.4226V18.7293H65.4217ZM63.6606 23.5812C62.6007 23.5812 61.7135 22.6902 61.7135 21.4675C61.7135 20.2308 62.6007 19.3275 63.6606 19.3275C64.7064 19.3275 65.5278 20.2308 65.5278 21.4675C65.5278 22.6902 64.7064 23.5812 63.6606 23.5812ZM83.7071 14.4369H80.031V24.7502H81.5644V20.843H83.7063C85.4067 20.843 87.0791 19.608 87.0791 17.6403C87.0791 15.6727 85.4075 14.4369 83.7071 14.4369ZM83.7466 19.4075H81.5644V15.8724H83.7466C84.8936 15.8724 85.5448 16.8252 85.5448 17.6403C85.5448 18.4389 84.8936 19.4075 83.7466 19.4075ZM93.2285 17.9266C92.1177 17.9266 90.9674 18.4175 90.4913 19.5057L91.8529 20.0757C92.144 19.5057 92.6866 19.3192 93.2548 19.3192C94.0482 19.3192 94.8548 19.7969 94.868 20.6458V20.7522C94.5901 20.593 93.9948 20.3546 93.2679 20.3546C91.8003 20.3546 90.3055 21.1639 90.3055 22.6761C90.3055 24.0564 91.5092 24.9449 92.8577 24.9449C93.8887 24.9449 94.4577 24.4804 94.8145 23.9359H94.8672V24.732H96.3488V20.7778C96.3496 18.948 94.9864 17.9266 93.2285 17.9266ZM93.0427 23.5787C92.5411 23.5787 91.8397 23.3262 91.8397 22.7025C91.8397 21.9064 92.713 21.6012 93.4669 21.6012C94.1403 21.6012 94.4585 21.7472 94.868 21.946C94.7488 22.9022 93.929 23.5787 93.0427 23.5787ZM101.744 18.1518L99.9855 22.6233H99.9329L98.1076 18.1518H96.4549L99.1921 24.4012L97.6315 27.8778H99.2315L103.45 18.1518H101.744ZM87.926 24.7502H89.4594V14.4369H87.926V24.7502Z" fill="white"/>
<path d="M38.9882 8.45039C38.9882 9.14174 38.7843 9.69201 38.3756 10.1029C37.9119 10.5913 37.3067 10.8355 36.5634 10.8355C35.8514 10.8355 35.2454 10.588 34.748 10.093C34.2497 9.59713 34.0006 8.98334 34.0006 8.25074C34.0006 7.51731 34.2497 6.90351 34.748 6.40851C35.2454 5.91269 35.8514 5.66519 36.5634 5.66519C36.917 5.66519 37.2549 5.73449 37.5756 5.87226C37.8971 6.01086 38.1544 6.19484 38.3468 6.42501L37.9135 6.86061C37.5871 6.46874 37.1374 6.27321 36.5626 6.27321C36.043 6.27321 35.594 6.45636 35.215 6.82266C34.836 7.18896 34.6468 7.66499 34.6468 8.24991C34.6468 8.83484 34.836 9.31086 35.215 9.67716C35.594 10.0435 36.043 10.2266 36.5626 10.2266C37.1135 10.2266 37.5731 10.0426 37.9407 9.67386C38.1791 9.43378 38.3172 9.09966 38.3542 8.67149H36.5626V8.07666H38.9528C38.9775 8.20619 38.9882 8.33076 38.9882 8.45039Z" fill="white"/>
<path d="M42.7787 6.38298H40.5324V7.95213H42.5583V8.54696H40.5324V10.1161H42.7787V10.725H39.8985V5.77496H42.7787V6.38298Z" fill="white"/>
<path d="M45.4517 10.725H44.8177V6.38298H43.4397V5.77496H46.8297V6.38298H45.4517V10.725Z" fill="white"/>
<path d="M49.2824 10.725V5.77496H49.9163V10.725H49.2824Z" fill="white"/>
<path d="M52.7276 10.725H52.0937V6.38298H50.7156V5.77496H54.1056V6.38298H52.7276V10.725Z" fill="white"/>
<path d="M60.5229 10.0856C60.0378 10.5855 59.4351 10.8355 58.714 10.8355C57.9929 10.8355 57.3902 10.5855 56.9059 10.0856C56.4208 9.58562 56.1791 8.97347 56.1791 8.24995C56.1791 7.52642 56.4208 6.91427 56.9059 6.41432C57.3902 5.91437 57.9929 5.66357 58.714 5.66357C59.431 5.66357 60.0329 5.9152 60.5196 6.41762C61.0064 6.92005 61.2497 7.53055 61.2497 8.24995C61.2497 8.97347 61.0072 9.58562 60.5229 10.0856ZM57.3738 9.6706C57.7389 10.0418 58.1853 10.2266 58.714 10.2266C59.2427 10.2266 59.69 10.041 60.0542 9.6706C60.4193 9.29935 60.6027 8.8258 60.6027 8.24995C60.6027 7.6741 60.4193 7.20055 60.0542 6.8293C59.69 6.45805 59.2427 6.27325 58.714 6.27325C58.1853 6.27325 57.7389 6.45887 57.3738 6.8293C57.0095 7.20055 56.8262 7.6741 56.8262 8.24995C56.8262 8.8258 57.0095 9.29935 57.3738 9.6706Z" fill="white"/>
<path d="M62.1394 10.725V5.77496H62.9107L65.3083 9.62523H65.3354L65.3083 8.67153V5.77496H65.9422V10.725H65.2803L62.7717 6.68741H62.7446L62.7717 7.64111V10.725H62.1394Z" fill="white"/>
<path d="M38.9882 8.45039C38.9882 9.14174 38.7843 9.69201 38.3756 10.1029C37.9119 10.5913 37.3067 10.8355 36.5634 10.8355C35.8514 10.8355 35.2454 10.588 34.748 10.093C34.2497 9.59713 34.0006 8.98334 34.0006 8.25074C34.0006 7.51731 34.2497 6.90351 34.748 6.40851C35.2454 5.91269 35.8514 5.66519 36.5634 5.66519C36.917 5.66519 37.2549 5.73449 37.5756 5.87226C37.8971 6.01086 38.1544 6.19484 38.3468 6.42501L37.9135 6.86061C37.5871 6.46874 37.1374 6.27321 36.5626 6.27321C36.043 6.27321 35.594 6.45636 35.215 6.82266C34.836 7.18896 34.6468 7.66499 34.6468 8.24991C34.6468 8.83484 34.836 9.31086 35.215 9.67716C35.594 10.0435 36.043 10.2266 36.5626 10.2266C37.1135 10.2266 37.5731 10.0426 37.9407 9.67386C38.1791 9.43378 38.3172 9.09966 38.3542 8.67149H36.5626V8.07666H38.9528C38.9775 8.20619 38.9882 8.33076 38.9882 8.45039Z" stroke="white" stroke-width="0.2" stroke-miterlimit="10"/>
<path d="M42.7787 6.38298H40.5324V7.95213H42.5583V8.54696H40.5324V10.1161H42.7787V10.725H39.8985V5.77496H42.7787V6.38298Z" stroke="white" stroke-width="0.2" stroke-miterlimit="10"/>
<path d="M45.4517 10.725H44.8177V6.38298H43.4397V5.77496H46.8297V6.38298H45.4517V10.725Z" stroke="white" stroke-width="0.2" stroke-miterlimit="10"/>
<path d="M49.2824 10.725V5.77496H49.9163V10.725H49.2824Z" stroke="white" stroke-width="0.2" stroke-miterlimit="10"/>
<path d="M52.7276 10.725H52.0937V6.38298H50.7156V5.77496H54.1056V6.38298H52.7276V10.725Z" stroke="white" stroke-width="0.2" stroke-miterlimit="10"/>
<path d="M60.5229 10.0856C60.0378 10.5855 59.4351 10.8355 58.714 10.8355C57.9929 10.8355 57.3902 10.5855 56.9059 10.0856C56.4208 9.58562 56.1791 8.97347 56.1791 8.24995C56.1791 7.52642 56.4208 6.91427 56.9059 6.41432C57.3902 5.91437 57.9929 5.66357 58.714 5.66357C59.431 5.66357 60.0329 5.9152 60.5196 6.41762C61.0064 6.92005 61.2497 7.53055 61.2497 8.24995C61.2497 8.97347 61.0072 9.58562 60.5229 10.0856ZM57.3738 9.6706C57.7389 10.0418 58.1853 10.2266 58.714 10.2266C59.2427 10.2266 59.69 10.041 60.0542 9.6706C60.4193 9.29935 60.6027 8.8258 60.6027 8.24995C60.6027 7.6741 60.4193 7.20055 60.0542 6.8293C59.69 6.45805 59.2427 6.27325 58.714 6.27325C58.1853 6.27325 57.7389 6.45887 57.3738 6.8293C57.0095 7.20055 56.8262 7.6741 56.8262 8.24995C56.8262 8.8258 57.0095 9.29935 57.3738 9.6706Z" stroke="white" stroke-width="0.2" stroke-miterlimit="10"/>
<path d="M62.1394 10.725V5.77496H62.9107L65.3083 9.62523H65.3354L65.3083 8.67153V5.77496H65.9422V10.725H65.2803L62.7717 6.68741H62.7446L62.7717 7.64111V10.725H62.1394Z" stroke="white" stroke-width="0.2" stroke-miterlimit="10"/>
<path fill-rule="evenodd" clip-rule="evenodd" d="M21.1796 11.6958L11.7851 6.22921C11.4274 6.01422 11.0099 5.89014 10.5631 5.89014C9.67372 5.89014 8.88784 6.41169 8.48442 7.15188L8.57635 7.24409L17.0969 15.7916L21.1796 11.6958ZM22.0732 12.2158L17.8029 16.4998L22.091 20.8015L25.8741 18.6106C26.616 18.2088 27.1196 17.424 27.1196 16.5191C27.1196 15.6207 26.6227 14.8398 25.8882 14.4366L25.8798 14.4308L22.0732 12.2158ZM21.1958 21.3199L17.0969 17.208L8.57635 25.7557L8.48445 25.8479C8.88792 26.5881 9.67391 27.1097 10.5631 27.1097C11.0002 27.1097 11.4107 26.9911 11.7627 26.7829L11.7906 26.7665L21.1958 21.3199ZM8.19757 24.7192L16.3909 16.4998L8.19757 8.28057V24.7192Z" fill="white"/>
</svg>
