<svg width="111" height="33" viewBox="0 0 111 33" fill="none" xmlns="http://www.w3.org/2000/svg">
<rect x="0.5" y="0.5" width="110" height="32" rx="6.25" fill="#0C1C38"/>
<rect x="0.5" y="0.5" width="110" height="32" rx="6.25" stroke="white"/>
<path d="M37.8871 20.9646H40.8046L39.7601 18.2007C39.6164 17.8189 39.4751 17.3972 39.3357 16.9353C39.21 17.3439 39.0729 17.7611 38.9247 18.1874L37.8871 20.9646ZM41.3031 22.2767H37.3953L36.4387 24.8609H34.7206L38.5474 15.2104H40.1712L44.0857 24.8609H42.2802L41.3031 22.2767Z" fill="white"/>
<path d="M49.1541 23.1059C49.4932 22.6554 49.6628 21.997 49.6628 21.1312C49.6628 20.3277 49.5224 19.7447 49.2417 19.3828C48.9609 19.021 48.587 18.8401 48.1198 18.8401C47.7964 18.8401 47.4978 18.9157 47.2238 19.0665C46.9498 19.2175 46.6892 19.4195 46.4422 19.6726V23.5222C46.6084 23.602 46.8016 23.6654 47.0217 23.7118C47.2418 23.7587 47.4597 23.782 47.6752 23.782C48.3221 23.782 48.8149 23.5565 49.1541 23.1059ZM44.7781 19.4329C44.7781 18.9001 44.7601 18.3139 44.7243 17.6746H46.2873C46.3456 17.9721 46.3861 18.2763 46.4086 18.587C47.0553 17.8901 47.7965 17.5413 48.6319 17.5413C49.1171 17.5413 49.5662 17.6623 49.9795 17.9042C50.3926 18.1463 50.7262 18.5281 50.9799 19.0498C51.2338 19.5716 51.3607 20.2344 51.3607 21.0379C51.3607 21.8771 51.2158 22.5943 50.9261 23.1891C50.6363 23.7842 50.231 24.2347 49.71 24.5413C49.189 24.8475 48.587 25.0008 47.9044 25.0008C47.4101 25.0008 46.9227 24.9185 46.4422 24.7544V27.7246L44.7781 27.8645V19.4329Z" fill="white"/>
<path d="M56.7465 23.1059C57.0857 22.6554 57.2553 21.997 57.2553 21.1312C57.2553 20.3277 57.1149 19.7447 56.8342 19.3828C56.5534 19.021 56.1795 18.8401 55.7123 18.8401C55.389 18.8401 55.0903 18.9157 54.8163 19.0665C54.5421 19.2175 54.2817 19.4195 54.0347 19.6726V23.5222C54.201 23.602 54.3939 23.6654 54.6142 23.7118C54.8341 23.7587 55.052 23.782 55.2677 23.782C55.9144 23.782 56.4074 23.5565 56.7465 23.1059ZM52.3704 19.4329C52.3704 18.9001 52.3524 18.3139 52.3166 17.6746H53.8798C53.9381 17.9721 53.9786 18.2763 54.0011 18.587C54.6479 17.8901 55.389 17.5413 56.2244 17.5413C56.7096 17.5413 57.1585 17.6623 57.572 17.9042C57.9851 18.1463 58.3187 18.5281 58.5726 19.0498C58.8261 19.5716 58.9532 20.2344 58.9532 21.0379C58.9532 21.8771 58.8081 22.5943 58.5185 23.1891C58.2288 23.7842 57.8233 24.2347 57.3025 24.5413C56.7813 24.8475 56.1795 25.0008 55.4967 25.0008C55.0026 25.0008 54.5152 24.9185 54.0347 24.7544V27.7246L52.3704 27.8645V19.4329Z" fill="white"/>
<path d="M62.0102 24.4046C61.2914 24.0119 60.739 23.4489 60.3529 22.7163C59.9663 21.9837 59.7733 21.1178 59.7733 20.1188C59.7733 19.0356 59.9957 18.1152 60.4403 17.3581C60.885 16.6012 61.4903 16.0329 62.2559 15.6532C63.022 15.2736 63.8808 15.0838 64.8334 15.0838C65.3947 15.0838 65.9304 15.1448 66.4402 15.2669C66.9499 15.3891 67.4248 15.5566 67.8652 15.7698L67.4406 17.0351C66.5557 16.6178 65.7114 16.4091 64.9075 16.4091C64.2291 16.4091 63.6351 16.5523 63.1255 16.8388C62.6156 17.1252 62.219 17.5459 61.9361 18.1009C61.653 18.6559 61.5117 19.3263 61.5117 20.1121C61.5117 20.8006 61.6205 21.4109 61.8382 21.9437C62.0563 22.4765 62.3999 22.8985 62.8693 23.2091C63.3387 23.52 63.9304 23.6753 64.6446 23.6753C64.968 23.6753 65.2914 23.6487 65.6148 23.5954C65.9381 23.5422 66.2415 23.4645 66.5243 23.3623V21.4109H64.2674V20.1322H68.1414V24.1949C67.5844 24.4523 66.9993 24.6501 66.3864 24.7876C65.773 24.9251 65.1634 24.994 64.557 24.994C63.5777 24.994 62.7286 24.7978 62.0102 24.4046Z" fill="white"/>
<path d="M73.0582 23.5287C73.4038 23.3647 73.6869 23.1602 73.907 22.9161V21.5841C73.4532 21.5353 73.0826 21.5109 72.7953 21.5109C72.1081 21.5109 71.6329 21.6206 71.3705 21.8406C71.1074 22.0601 70.9761 22.3566 70.9761 22.7295C70.9761 23.085 71.0716 23.3479 71.2626 23.5189C71.4535 23.6898 71.7128 23.7752 72.0406 23.7752C72.3729 23.7752 72.7121 23.6931 73.0582 23.5287ZM74.0552 24.8609C73.9967 24.581 73.9584 24.2638 73.9406 23.9085C73.6847 24.2106 73.3513 24.4668 72.94 24.6778C72.5294 24.8886 72.0653 24.994 71.5488 24.994C71.1311 24.994 70.7505 24.913 70.4066 24.7509C70.0634 24.589 69.7904 24.3447 69.5883 24.0182C69.3862 23.692 69.2849 23.2936 69.2849 22.8228C69.2849 22.1258 69.5386 21.5696 70.0463 21.1544C70.5539 20.7393 71.4006 20.5318 72.5864 20.5318C73.031 20.5318 73.4712 20.563 73.907 20.625V20.4852C73.907 19.8503 73.7699 19.403 73.4959 19.143C73.222 18.8835 72.8289 18.7536 72.317 18.7536C71.9621 18.7536 71.5826 18.8047 71.1782 18.9067C70.7741 19.009 70.4191 19.131 70.1137 19.273L69.8509 18.0742C70.1474 17.9409 70.5382 17.8189 71.0233 17.7078C71.5085 17.597 72.0204 17.5413 72.5594 17.5413C73.1883 17.5413 73.7227 17.6357 74.1629 17.8243C74.6032 18.0131 74.9468 18.3374 75.1938 18.7967C75.4408 19.2565 75.5644 19.8748 75.5644 20.6516V23.5087C75.5644 23.8064 75.5822 24.2572 75.6182 24.8609H74.0552Z" fill="white"/>
<path d="M76.8412 23.1358V14.6442L78.4985 14.511V22.8428C78.4985 23.1492 78.5513 23.3655 78.6568 23.4922C78.7623 23.6185 78.9296 23.6821 79.1589 23.6821C79.2621 23.6821 79.4081 23.6577 79.5966 23.6088L79.792 24.7876C79.6347 24.8499 79.4428 24.8998 79.2163 24.9374C78.9893 24.9751 78.7747 24.994 78.5726 24.994C77.418 24.994 76.8412 24.3747 76.8412 23.1358Z" fill="white"/>
<path d="M80.9847 23.1358V14.6442L82.6421 14.511V22.8428C82.6421 23.1492 82.6948 23.3655 82.8003 23.4922C82.906 23.6185 83.0734 23.6821 83.3024 23.6821C83.4057 23.6821 83.5517 23.6577 83.7404 23.6088L83.9358 24.7876C83.7785 24.8499 83.5864 24.8998 83.3598 24.9374C83.1328 24.9751 82.9183 24.994 82.7162 24.994C81.5618 24.994 80.9847 24.3747 80.9847 23.1358Z" fill="white"/>
<path d="M89.1294 20.4319C89.096 19.8591 88.9514 19.4296 88.691 19.143C88.4306 18.8568 88.0812 18.7135 87.6472 18.7135C87.2243 18.7135 86.8727 18.858 86.5923 19.1465C86.3118 19.4352 86.1271 19.8636 86.0425 20.4319H89.1294ZM90.7518 21.4775H85.9958C86.0715 22.9828 86.797 23.7353 88.1724 23.7353C88.5129 23.7353 88.8623 23.6943 89.2207 23.6122C89.5768 23.5299 89.9195 23.4201 90.2466 23.2824L90.6116 24.4079C89.7971 24.7988 88.8846 24.994 87.8697 24.994C87.0952 24.994 86.4454 24.8499 85.9157 24.5612C85.3838 24.2726 84.9854 23.8575 84.7183 23.3156C84.4517 22.7742 84.318 22.1214 84.318 21.3576C84.318 20.563 84.4595 19.8791 84.7428 19.3063C85.0255 18.7335 85.4194 18.2963 85.9246 17.9943C86.4298 17.6924 87.0129 17.5413 87.6739 17.5413C88.3616 17.5413 88.9336 17.7001 89.3943 18.0177C89.8549 18.3349 90.1955 18.758 90.418 19.2863C90.6406 19.8149 90.7518 20.3986 90.7518 21.0379V21.4775Z" fill="white"/>
<path d="M92.0115 19.4795C92.0115 19.0844 91.9915 18.4828 91.9559 17.6746H93.5138C93.5405 17.8744 93.5649 18.1131 93.5916 18.3906C93.6161 18.668 93.6317 18.8934 93.6406 19.0665C93.8342 18.7513 94.0234 18.486 94.2104 18.2707C94.3973 18.0552 94.6154 17.88 94.8647 17.7444C95.1139 17.609 95.3966 17.5413 95.7171 17.5413C95.973 17.5413 96.1911 17.568 96.3758 17.6213L96.1666 19.0466C96.0064 18.9978 95.8261 18.9733 95.628 18.9733C95.2386 18.9733 94.8958 19.0721 94.6043 19.2698C94.3127 19.4672 94.0012 19.7924 93.6673 20.2453V24.8609H92.0115V19.4795Z" fill="white"/>
<path d="M97.3106 27.8012C97.068 27.7592 96.8677 27.7114 96.7119 27.6582L97.0146 26.4594C97.1259 26.4902 97.2683 26.5203 97.4397 26.5492C97.6088 26.5782 97.7713 26.5925 97.9248 26.5925C98.6615 26.5925 99.2134 26.1239 99.5807 25.1872L99.6897 24.9208L97.0079 17.6746H98.7928L100.141 21.7239C100.36 22.4167 100.502 22.9473 100.564 23.3156C100.691 22.7962 100.838 22.2767 101.009 21.7572L102.378 17.6746H104.054L101.381 24.9542C101.13 25.6423 100.856 26.1972 100.564 26.6191C100.273 27.0408 99.9278 27.3539 99.5317 27.5583C99.1333 27.7623 98.6548 27.8645 98.0918 27.8645C97.8136 27.8645 97.5532 27.8437 97.3106 27.8012Z" fill="white"/>
<path d="M34.7132 6.02346H37.6795L37.596 6.73163H35.5825V8.10311H37.4812V8.76664H35.5825V10.286H37.7037L37.6307 11.0009H34.7132V6.02346Z" fill="white"/>
<path d="M39.7241 8.46061L38.1593 6.02346H39.1468L40.2075 7.81447L41.3238 6.02346H42.2835L40.7325 8.4296L42.4121 11.0009H41.4106L40.211 9.04164L38.9903 11.0009H38.0306L39.7241 8.46061Z" fill="white"/>
<path d="M45.2324 8.24568C45.4177 8.0798 45.5105 7.84527 45.5105 7.54277C45.5105 7.23565 45.4159 7.01477 45.2272 6.87947C45.0383 6.74417 44.7605 6.67663 44.3944 6.67663H43.9215V8.44346C44.1394 8.47778 44.3063 8.49494 44.4222 8.49494C44.7768 8.49494 45.047 8.412 45.2324 8.24568ZM43.052 6.02346H44.4082C45.0456 6.02346 45.5337 6.15194 45.8722 6.40846C46.2107 6.6652 46.3798 7.03634 46.3798 7.5221C46.3798 7.8521 46.304 8.14051 46.1522 8.38669C46.0002 8.63309 45.7887 8.8223 45.5174 8.95386C45.2464 9.08586 44.9343 9.15164 44.582 9.15164C44.3897 9.15164 44.1694 9.12875 43.9215 9.08277V11.0009H43.052V6.02346Z" fill="white"/>
<path d="M47.2389 6.02346H48.1082V10.2653H50.1911L50.1181 11.0009H47.2389V6.02346Z" fill="white"/>
<path d="M53.766 10.1467C54.0095 9.98521 54.1914 9.76301 54.312 9.47987C54.4326 9.19695 54.4929 8.87311 54.4929 8.50879C54.4929 8.15129 54.4395 7.83295 54.3329 7.55311C54.2261 7.27349 54.0558 7.05085 53.8217 6.88453C53.5876 6.71843 53.2862 6.63527 52.9174 6.63527C52.5651 6.63527 52.266 6.71953 52.0203 6.88805C51.7746 7.05635 51.5903 7.28229 51.4675 7.56521C51.3446 7.84835 51.2832 8.16053 51.2832 8.50197C51.2832 8.86167 51.3411 9.18375 51.457 9.46777C51.5727 9.75201 51.7501 9.97663 51.9892 10.1416C52.2277 10.3066 52.5233 10.3891 52.8758 10.3891C53.2259 10.3891 53.5226 10.3082 53.766 10.1467ZM51.5127 10.757C51.1441 10.5484 50.8624 10.2556 50.6676 9.87851C50.4729 9.50165 50.3756 9.06341 50.3756 8.56379C50.3756 8.03909 50.4791 7.58017 50.6868 7.18703C50.8942 6.79411 51.1933 6.49051 51.5839 6.27601C51.9745 6.06195 52.4352 5.95459 52.9662 5.95459C53.4738 5.95459 53.9109 6.05843 54.2772 6.26567C54.6434 6.47335 54.9229 6.76485 55.1152 7.14061C55.3077 7.51659 55.4038 7.95197 55.4038 8.44697C55.4038 8.98091 55.299 9.44511 55.0891 9.83913C54.8793 10.2331 54.5804 10.537 54.192 10.7499C53.8037 10.9631 53.3476 11.0697 52.8237 11.0697C52.3183 11.0697 51.8812 10.9655 51.5127 10.757Z" fill="white"/>
<path d="M57.7374 8.37811C57.9481 8.37811 58.1348 8.33764 58.2971 8.25602C58.4593 8.17484 58.5857 8.06022 58.6761 7.91238C58.7667 7.76454 58.8119 7.59316 58.8119 7.39846C58.8119 7.14876 58.7318 6.96594 58.572 6.85022C58.4119 6.7345 58.1789 6.67663 57.8729 6.67663H57.2435V8.37811H57.7374ZM56.3742 6.02346H57.9494C58.5243 6.02346 58.9597 6.13698 59.2552 6.3638C59.5508 6.59062 59.6985 6.91511 59.6985 7.33663C59.6985 7.6002 59.6451 7.8323 59.5385 8.03272C59.4319 8.23336 59.2997 8.3966 59.1421 8.52244C58.9844 8.6485 58.8223 8.74243 58.6554 8.80447L60.2028 11.0009H59.1944L57.8834 9.02778H57.2435V11.0009H56.3742V6.02346Z" fill="white"/>
<path d="M60.8914 6.02346H63.8576L63.7742 6.73163H61.7607V8.10311H63.6593V8.76664H61.7607V10.286H63.8819L63.8089 11.0009H60.8914V6.02346Z" fill="white"/>
<path d="M67.0847 6.02346H67.954V11.0009H67.0847V6.02346Z" fill="white"/>
<path d="M70.2526 6.74197H68.6911L68.7677 6.02346H72.6869L72.6068 6.74197H71.1219V11.0009H70.2526V6.74197Z" fill="white"/>
<path d="M78.7133 10.1467C78.9566 9.98521 79.1386 9.76301 79.2592 9.47987C79.3796 9.19695 79.4399 8.87311 79.4399 8.50879C79.4399 8.15129 79.3865 7.83295 79.2802 7.55311C79.1733 7.27349 79.0029 7.05085 78.7689 6.88453C78.5346 6.71843 78.2333 6.63527 77.8647 6.63527C77.5122 6.63527 77.2133 6.71953 76.9676 6.88805C76.7216 7.05635 76.5374 7.28229 76.4147 7.56521C76.2917 7.84835 76.2302 8.16053 76.2302 8.50197C76.2302 8.86167 76.2881 9.18375 76.4043 9.46777C76.52 9.75201 76.6974 9.97663 76.9362 10.1416C77.175 10.3066 77.4706 10.3891 77.8231 10.3891C78.1729 10.3891 78.4698 10.3082 78.7133 10.1467ZM76.4599 10.757C76.0911 10.5484 75.8096 10.2556 75.6149 9.87851C75.4201 9.50165 75.3226 9.06341 75.3226 8.56379C75.3226 8.03909 75.4264 7.58017 75.634 7.18703C75.8412 6.79411 76.1403 6.49051 76.5311 6.27601C76.9217 6.06195 77.3824 5.95459 77.9134 5.95459C78.4211 5.95459 78.858 6.05843 79.2245 6.26567C79.5906 6.47335 79.8699 6.76485 80.0624 7.14061C80.2547 7.51659 80.3511 7.95197 80.3511 8.44697C80.3511 8.98091 80.2461 9.44511 80.0364 9.83913C79.8265 10.2331 79.5274 10.537 79.1393 10.7499C78.7509 10.9631 78.2947 11.0697 77.7708 11.0697C77.2653 11.0697 76.8285 10.9655 76.4599 10.757Z" fill="white"/>
<path d="M81.3212 6.02346H82.3194L84.8096 9.88028C84.7873 9.51375 84.7784 9.17562 84.7784 8.8663V6.02346H85.5841V11.0009H84.6182L82.0899 7.0821C82.1153 7.52694 82.128 7.92096 82.128 8.2646V11.0009H81.3212V6.02346Z" fill="white"/>
<path d="M16.515 18.1711H17.363L16.9376 17.1934L16.515 18.1711Z" fill="white"/>
<path fill-rule="evenodd" clip-rule="evenodd" d="M22.4853 6.05005H13.2394C8.88401 6.05005 7.29095 7.62481 7.29095 11.9302V21.07C7.29095 25.3753 8.88401 26.95 13.2394 26.95H22.4824C26.8379 26.95 28.4338 25.3753 28.4338 21.07V11.9302C28.4338 7.62481 26.8407 6.05005 22.4853 6.05005ZM16.3063 18.6639L16.0548 19.2329H15.4821L16.7 16.5019H17.1947L18.4076 19.2329H17.8196L17.5713 18.6639H16.3063ZM25.5208 19.231H26.0743V16.5019H25.5208V19.231ZM23.3181 18.0583H24.3381V17.561H23.3181V17.0015H24.7988V16.5036H22.7648V19.2326H24.8522V18.7349H23.3181V18.0583ZM21.119 18.3808L20.4914 16.5018H20.0338L19.4062 18.3808L18.7955 16.5031H18.1986L19.1621 19.2341H19.6263L20.2548 17.4402L20.8831 19.2341H21.3516L22.3126 16.5031H21.7311L21.119 18.3808ZM14.6373 18.0658C14.6373 18.5101 14.4141 18.7475 14.0088 18.7475C13.6013 18.7475 13.377 18.5034 13.377 18.0469V16.5034H12.8161V18.0658C12.8161 18.8345 13.2481 19.2752 14.0012 19.2752C14.7617 19.2752 15.1979 18.8261 15.1979 18.0432V16.5018H14.6373V18.0658ZM11.4779 16.5019H12.0385V19.2343H11.4779V18.1247H10.2113V19.2343H9.65048V16.5019H10.2113V17.6042H11.4779V16.5019ZM14.3431 9.54387C14.3431 11.4621 15.9219 13.0228 17.8624 13.0228C19.8028 13.0228 21.3817 11.4621 21.3817 9.54387H20.8845C20.8845 11.1911 19.5289 12.5313 17.8624 12.5313C16.1959 12.5313 14.8403 11.1911 14.8403 9.54387H14.3431Z" fill="white"/>
</svg>
