<svg width="112" height="23" viewBox="0 0 112 23" fill="none" xmlns="http://www.w3.org/2000/svg">
<path d="M13.9547 17.904C13.7787 17.952 13.4987 18 13.1147 18.048C12.7467 18.096 12.3787 18.12 12.0107 18.12C11.6427 18.12 11.3147 18.088 11.0267 18.024C10.7547 17.976 10.5227 17.88 10.3307 17.736C10.1387 17.592 9.99472 17.392 9.89872 17.136C9.80272 16.88 9.75472 16.544 9.75472 16.128V12.384H5.14672V17.904C4.97072 17.952 4.69072 18 4.30672 18.048C3.93872 18.096 3.57072 18.12 3.20272 18.12C2.83472 18.12 2.50672 18.088 2.21872 18.024C1.94672 17.976 1.71472 17.88 1.52272 17.736C1.33072 17.592 1.18672 17.392 1.09072 17.136C0.994719 16.88 0.946719 16.544 0.946719 16.128V3.456C1.12272 3.424 1.40272 3.384 1.78672 3.336C2.17072 3.272 2.53872 3.24 2.89072 3.24C3.25872 3.24 3.57872 3.272 3.85072 3.336C4.13872 3.384 4.37872 3.48 4.57072 3.624C4.76272 3.768 4.90672 3.968 5.00272 4.224C5.09872 4.48 5.14672 4.816 5.14672 5.232V9.072H9.75472V3.456C9.93072 3.424 10.2107 3.384 10.5947 3.336C10.9787 3.272 11.3467 3.24 11.6987 3.24C12.0667 3.24 12.3867 3.272 12.6587 3.336C12.9467 3.384 13.1867 3.48 13.3787 3.624C13.5707 3.768 13.7147 3.968 13.8107 4.224C13.9067 4.48 13.9547 4.816 13.9547 5.232V17.904ZM21.7517 15.408C22.0237 15.408 22.3197 15.384 22.6397 15.336C22.9757 15.272 23.2237 15.192 23.3837 15.096V13.176L21.6557 13.32C21.2077 13.352 20.8397 13.448 20.5517 13.608C20.2637 13.768 20.1197 14.008 20.1197 14.328C20.1197 14.648 20.2397 14.912 20.4797 15.12C20.7357 15.312 21.1597 15.408 21.7517 15.408ZM21.5597 5.976C22.4237 5.976 23.2077 6.064 23.9117 6.24C24.6317 6.416 25.2397 6.688 25.7357 7.056C26.2477 7.408 26.6397 7.864 26.9117 8.424C27.1837 8.968 27.3197 9.616 27.3197 10.368V15.744C27.3197 16.16 27.1997 16.504 26.9597 16.776C26.7357 17.032 26.4637 17.256 26.1437 17.448C25.1037 18.072 23.6397 18.384 21.7517 18.384C20.9037 18.384 20.1357 18.304 19.4477 18.144C18.7757 17.984 18.1917 17.744 17.6957 17.424C17.2157 17.104 16.8397 16.696 16.5677 16.2C16.3117 15.704 16.1837 15.128 16.1837 14.472C16.1837 13.368 16.5117 12.52 17.1677 11.928C17.8237 11.336 18.8397 10.968 20.2157 10.824L23.3597 10.488V10.32C23.3597 9.856 23.1517 9.528 22.7357 9.336C22.3357 9.128 21.7517 9.024 20.9837 9.024C20.3757 9.024 19.7837 9.088 19.2077 9.216C18.6317 9.344 18.1117 9.504 17.6477 9.696C17.4397 9.552 17.2637 9.336 17.1197 9.048C16.9757 8.744 16.9037 8.432 16.9037 8.112C16.9037 7.696 16.9997 7.368 17.1917 7.128C17.3997 6.872 17.7117 6.656 18.1277 6.48C18.5917 6.304 19.1357 6.176 19.7597 6.096C20.3997 6.016 20.9997 5.976 21.5597 5.976ZM35.1664 5.976C36.1264 5.976 37.0144 6.104 37.8304 6.36C38.6624 6.6 39.3744 6.976 39.9664 7.488C40.5584 8 41.0224 8.648 41.3584 9.432C41.6944 10.2 41.8624 11.12 41.8624 12.192C41.8624 13.216 41.7184 14.112 41.4304 14.88C41.1424 15.648 40.7344 16.296 40.2064 16.824C39.6784 17.336 39.0384 17.72 38.2864 17.976C37.5504 18.232 36.7264 18.36 35.8144 18.36C35.1264 18.36 34.4864 18.256 33.8944 18.048V22.032C33.7344 22.08 33.4784 22.128 33.1264 22.176C32.7744 22.24 32.4144 22.272 32.0464 22.272C31.6944 22.272 31.3744 22.248 31.0864 22.2C30.8144 22.152 30.5824 22.056 30.3904 21.912C30.1984 21.768 30.0544 21.568 29.9584 21.312C29.8624 21.072 29.8144 20.752 29.8144 20.352V8.832C29.8144 8.4 29.9024 8.048 30.0784 7.776C30.2704 7.504 30.5264 7.256 30.8464 7.032C31.3424 6.712 31.9584 6.456 32.6944 6.264C33.4304 6.072 34.2544 5.976 35.1664 5.976ZM35.2144 15.144C36.8624 15.144 37.6864 14.16 37.6864 12.192C37.6864 11.168 37.4784 10.408 37.0624 9.912C36.6624 9.416 36.0784 9.168 35.3104 9.168C35.0064 9.168 34.7344 9.208 34.4944 9.288C34.2544 9.352 34.0464 9.432 33.8704 9.528V14.808C34.0624 14.904 34.2704 14.984 34.4944 15.048C34.7184 15.112 34.9584 15.144 35.2144 15.144ZM49.2055 5.976C50.1655 5.976 51.0535 6.104 51.8695 6.36C52.7015 6.6 53.4135 6.976 54.0055 7.488C54.5975 8 55.0615 8.648 55.3975 9.432C55.7335 10.2 55.9015 11.12 55.9015 12.192C55.9015 13.216 55.7575 14.112 55.4695 14.88C55.1815 15.648 54.7735 16.296 54.2455 16.824C53.7175 17.336 53.0775 17.72 52.3255 17.976C51.5895 18.232 50.7655 18.36 49.8535 18.36C49.1655 18.36 48.5255 18.256 47.9335 18.048V22.032C47.7735 22.08 47.5175 22.128 47.1655 22.176C46.8135 22.24 46.4535 22.272 46.0855 22.272C45.7335 22.272 45.4135 22.248 45.1255 22.2C44.8535 22.152 44.6215 22.056 44.4295 21.912C44.2375 21.768 44.0935 21.568 43.9975 21.312C43.9015 21.072 43.8535 20.752 43.8535 20.352V8.832C43.8535 8.4 43.9415 8.048 44.1175 7.776C44.3095 7.504 44.5655 7.256 44.8855 7.032C45.3815 6.712 45.9975 6.456 46.7335 6.264C47.4695 6.072 48.2935 5.976 49.2055 5.976ZM49.2535 15.144C50.9015 15.144 51.7255 14.16 51.7255 12.192C51.7255 11.168 51.5175 10.408 51.1015 9.912C50.7015 9.416 50.1175 9.168 49.3495 9.168C49.0455 9.168 48.7735 9.208 48.5335 9.288C48.2935 9.352 48.0855 9.432 47.9095 9.528V14.808C48.1015 14.904 48.3095 14.984 48.5335 15.048C48.7575 15.112 48.9975 15.144 49.2535 15.144ZM59.4118 15.024C59.2358 14.624 59.0438 14.176 58.8358 13.68C58.6438 13.184 58.4358 12.616 58.2118 11.976C58.0038 11.336 57.7798 10.608 57.5398 9.792C57.3158 8.96 57.0758 8.008 56.8198 6.936C57.0438 6.712 57.3398 6.52 57.7078 6.36C58.0918 6.184 58.5078 6.096 58.9558 6.096C59.5158 6.096 59.9798 6.216 60.3478 6.456C60.7158 6.68 60.9878 7.112 61.1638 7.752L63.0598 14.352H63.1558C63.3478 13.808 63.5318 13.216 63.7078 12.576C63.8998 11.936 64.0838 11.28 64.2598 10.608C64.4358 9.92 64.5958 9.24 64.7398 8.568C64.8998 7.88 65.0358 7.208 65.1478 6.552C65.7238 6.248 66.3558 6.096 67.0438 6.096C67.6038 6.096 68.0678 6.216 68.4358 6.456C68.8038 6.696 68.9878 7.112 68.9878 7.704C68.9878 8.136 68.9318 8.64 68.8198 9.216C68.7078 9.776 68.5558 10.376 68.3638 11.016C68.1878 11.656 67.9718 12.32 67.7158 13.008C67.4758 13.68 67.2198 14.344 66.9478 15C66.6758 15.656 66.3958 16.28 66.1078 16.872C65.8198 17.448 65.5398 17.968 65.2678 18.432C64.8198 19.216 64.4038 19.856 64.0198 20.352C63.6358 20.848 63.2678 21.232 62.9158 21.504C62.5638 21.792 62.2118 21.984 61.8598 22.08C61.5078 22.192 61.1398 22.248 60.7558 22.248C60.0838 22.248 59.5398 22.048 59.1238 21.648C58.7078 21.248 58.4598 20.728 58.3798 20.088C58.8918 19.688 59.4038 19.24 59.9158 18.744C60.4278 18.264 60.8918 17.768 61.3078 17.256C61.0358 17.176 60.7398 16.992 60.4198 16.704C60.1158 16.4 59.7798 15.84 59.4118 15.024ZM70.4466 6.816C70.3346 6.64 70.2306 6.4 70.1346 6.096C70.0386 5.792 69.9906 5.472 69.9906 5.136C69.9906 4.512 70.1266 4.064 70.3986 3.792C70.6866 3.52 71.0546 3.384 71.5026 3.384H81.9666C82.0786 3.56 82.1826 3.8 82.2786 4.104C82.3746 4.408 82.4226 4.728 82.4226 5.064C82.4226 5.688 82.2786 6.136 81.9906 6.408C81.7186 6.68 81.3586 6.816 80.9106 6.816H78.2466V17.904C78.0706 17.952 77.7906 18 77.4066 18.048C77.0386 18.096 76.6706 18.12 76.3026 18.12C75.9346 18.12 75.6066 18.088 75.3186 18.024C75.0466 17.976 74.8146 17.88 74.6226 17.736C74.4306 17.592 74.2866 17.392 74.1906 17.136C74.0946 16.88 74.0466 16.544 74.0466 16.128V6.816H70.4466ZM87.2616 17.976C87.1016 18.024 86.8456 18.072 86.4936 18.12C86.1576 18.168 85.8056 18.192 85.4376 18.192C85.0856 18.192 84.7656 18.168 84.4776 18.12C84.2056 18.072 83.9736 17.976 83.7816 17.832C83.5896 17.688 83.4376 17.496 83.3256 17.256C83.2296 17 83.1816 16.672 83.1816 16.272V9.072C83.1816 8.704 83.2456 8.392 83.3736 8.136C83.5176 7.864 83.7176 7.624 83.9736 7.416C84.2296 7.208 84.5416 7.024 84.9096 6.864C85.2936 6.688 85.7016 6.536 86.1336 6.408C86.5656 6.28 87.0136 6.184 87.4776 6.12C87.9416 6.04 88.4056 6 88.8696 6C89.6376 6 90.2456 6.152 90.6936 6.456C91.1416 6.744 91.3656 7.224 91.3656 7.896C91.3656 8.12 91.3336 8.344 91.2696 8.568C91.2056 8.776 91.1256 8.968 91.0296 9.144C90.6936 9.144 90.3496 9.16 89.9976 9.192C89.6456 9.224 89.3016 9.272 88.9656 9.336C88.6296 9.4 88.3096 9.472 88.0056 9.552C87.7176 9.616 87.4696 9.696 87.2616 9.792V17.976ZM92.9528 3.096C92.9528 2.488 93.1528 1.976 93.5528 1.56C93.9688 1.144 94.5128 0.935999 95.1848 0.935999C95.8568 0.935999 96.3928 1.144 96.7928 1.56C97.2088 1.976 97.4168 2.488 97.4168 3.096C97.4168 3.704 97.2088 4.216 96.7928 4.632C96.3928 5.048 95.8568 5.256 95.1848 5.256C94.5128 5.256 93.9688 5.048 93.5528 4.632C93.1528 4.216 92.9528 3.704 92.9528 3.096ZM97.2248 17.976C97.0488 18.008 96.7848 18.048 96.4328 18.096C96.0968 18.16 95.7528 18.192 95.4008 18.192C95.0488 18.192 94.7288 18.168 94.4408 18.12C94.1688 18.072 93.9368 17.976 93.7448 17.832C93.5528 17.688 93.4008 17.496 93.2888 17.256C93.1928 17 93.1448 16.672 93.1448 16.272V6.504C93.3208 6.472 93.5768 6.432 93.9128 6.384C94.2648 6.32 94.6168 6.288 94.9688 6.288C95.3208 6.288 95.6328 6.312 95.9048 6.36C96.1928 6.408 96.4328 6.504 96.6248 6.648C96.8168 6.792 96.9608 6.992 97.0568 7.248C97.1688 7.488 97.2248 7.808 97.2248 8.208V17.976ZM105.174 5.976C106.134 5.976 107.022 6.104 107.838 6.36C108.67 6.6 109.382 6.976 109.974 7.488C110.566 8 111.03 8.648 111.366 9.432C111.702 10.2 111.87 11.12 111.87 12.192C111.87 13.216 111.726 14.112 111.438 14.88C111.15 15.648 110.742 16.296 110.214 16.824C109.686 17.336 109.046 17.72 108.294 17.976C107.558 18.232 106.734 18.36 105.822 18.36C105.134 18.36 104.494 18.256 103.902 18.048V22.032C103.742 22.08 103.486 22.128 103.134 22.176C102.782 22.24 102.422 22.272 102.054 22.272C101.702 22.272 101.382 22.248 101.094 22.2C100.822 22.152 100.59 22.056 100.398 21.912C100.206 21.768 100.062 21.568 99.9662 21.312C99.8702 21.072 99.8222 20.752 99.8222 20.352V8.832C99.8222 8.4 99.9102 8.048 100.086 7.776C100.278 7.504 100.534 7.256 100.854 7.032C101.35 6.712 101.966 6.456 102.702 6.264C103.438 6.072 104.262 5.976 105.174 5.976ZM105.222 15.144C106.87 15.144 107.694 14.16 107.694 12.192C107.694 11.168 107.486 10.408 107.07 9.912C106.67 9.416 106.086 9.168 105.318 9.168C105.014 9.168 104.742 9.208 104.502 9.288C104.262 9.352 104.054 9.432 103.878 9.528V14.808C104.07 14.904 104.278 14.984 104.502 15.048C104.726 15.112 104.966 15.144 105.222 15.144Z" fill="white"/>
</svg>
